<svg xmlns="http://www.w3.org/2000/svg" xmlns:svg="http://www.w3.org/2000/svg" id="svg2" width="1000" height="1000" version="1.1"><metadata id="metadata7"/><g id="layer1" transform="translate(0,-52.362183)"><path id="path3964-5" d="m 829.0875,387.21811 -320.24664,641.48169 0.49421,-0.4942 M 491.17477,75.839081 170.92813,717.32077 l 0.49421,-0.49421 M 499.99905,66.388549 985.9769,552.3674 499.9991,1038.3462 14.021255,552.36735 z" style="fill:none;stroke:#000;stroke-width:19.76831055;stroke-linecap:butt;stroke-linejoin:miter;stroke-miterlimit:4;stroke-opacity:1;stroke-dasharray:none"/><path style="fill:#000;fill-opacity:1;stroke:none" id="path4013" d="M 96.948045,625.90444 24.918053,553.86387 240.25741,338.52098 C 358.69405,220.08238 455.87129,123.4526 456.20682,123.78813 c 0.7485,0.74851 -285.30535,574.15691 -286.42726,574.15691 -0.44083,0 -33.21502,-32.41826 -72.831515,-72.0406 z"/><path style="fill:#000;fill-opacity:1;stroke:none" id="path4013-4" d="m 901.43198,481.06131 72.02999,72.04057 -215.33936,215.34289 C 639.68597,886.88337 542.50873,983.51314 542.1732,983.17761 c -0.7485,-0.74851 285.30535,-574.1569 286.42726,-574.1569 0.44083,0 33.21502,32.41826 72.83152,72.0406 z"/><path style="fill:none;stroke:#000;stroke-width:20;stroke-linecap:butt;stroke-linejoin:miter;stroke-opacity:1;stroke-miterlimit:4;stroke-dasharray:none" id="path4033" d="m 499.99599,75.065213 0.004,953.078287"/></g></svg>